<?xml version="1.0" encoding="utf-8"?>
<!-- Generator: Adobe Illustrator 24.0.0, SVG Export Plug-In . SVG Version: 6.00 Build 0)  -->
<svg version="1.1" id="Ñëîé_1" xmlns="http://www.w3.org/2000/svg" xmlns:xlink="http://www.w3.org/1999/xlink" x="0px" y="0px"
	 viewBox="0 0 301 252.6" style="enable-background:new 0 0 301 252.6;" xml:space="preserve">
<style type="text/css">
	.st0{fill:#5793CE;}
	.st1{fill:#C4D9E8;}
	.st2{fill:#D4ECFF;}
	.st3{fill:#173D7A;}
	.st4{fill:#FFFFFF;}
	.st5{fill:#396CAA;}
	.st6{fill:#D3D0CF;}
	.st7{fill:#F2F2F2;}
	.st8{fill:#FFC2B0;}
	.st9{fill:#EA9C92;}
	.st10{fill:#FF2C9C;}
	.st11{fill:#274F89;}
	.st12{fill:#D3008D;}
</style>
<g>
	
		<rect x="253.1" y="225.7" transform="matrix(0.9687 -0.2483 0.2483 0.9687 -48.2658 70.6263)" class="st0" width="5.5" height="1.9"/>
	
		<rect x="250.4" y="228.3" transform="matrix(0.9687 -0.2482 0.2482 0.9687 -48.9778 70.005)" class="st0" width="5.5" height="1.9"/>
	
		<rect x="247.6" y="231" transform="matrix(0.9687 -0.2482 0.2482 0.9687 -49.7364 69.3939)" class="st0" width="5.5" height="1.9"/>
	
		<rect x="244.9" y="233.7" transform="matrix(0.9687 -0.2483 0.2483 0.9687 -50.5087 68.8409)" class="st0" width="5.5" height="1.9"/>
</g>
<g>
	<path class="st1" d="M140,60.1L89.6,89.7c-12.8-3.9-29.1-2.7-39.8,3.6c-13.1,7.7-13,19.9,0.2,27.4c3,1.7,6.3,3,9.9,3.9
		c2.5,0.6,5.2,1.1,7.9,1.4c10.5,1,21.7-0.9,29.7-5.6c9.8-5.7,12.2-14,7.3-21l7-4.1l-0.2-4.4l7.3-0.1l-0.2-4.1l7.3-0.1l-0.2-4.1
		l7.3-0.1l-0.2-4.1l7.3-0.1l-0.2-4.1l7.8-0.1l2.4-1.4l2.6-10.9L140,60.1z M69.1,116.7c-3.4,2-8.9,2-12.4,0.1s-3.5-5.1,0-7.1
		c3.4-2,8.9-2,12.4-0.1C72.5,111.5,72.5,114.7,69.1,116.7z"/>
	<path class="st1" d="M167.5,247.2l-68-39.1c-4.6-2.6-4-7.3,1.3-10.3l66-38.1c5.3-3.1,13.3-3.4,17.9-0.7l68,39.1
		c4.6,2.6,4,7.3-1.3,10.3l-66,38.1C180.1,249.5,172.1,249.8,167.5,247.2z"/>
	<g>
		<g>
			<path class="st0" d="M247.2,158.6l-11.8-6.8l43.3-25c2-1.2,2-3.1,0-4.3l-44.3-25.6c-2-1.2-5.4-1.2-7.4,0l-43.3,25l-11.8-6.8
				l43.3-25c8.5-4.9,22.4-4.9,30.9,0l44.3,25.6c8.5,4.9,8.5,12.9,0,17.9L247.2,158.6z"/>
		</g>
		<g>
			<path class="st2" d="M266.2,161.6c0-6.3-3.8-13.6-8.5-16.3L179.2,100c-2.1-1.2-4-1.3-5.5-0.5l0,0L80,154l90.6,68.3l92.3-53.6
				c0.3-0.1,0.6-0.3,0.8-0.5l0,0l0,0C265.2,167,266.2,164.7,266.2,161.6z"/>
			<path class="st3" d="M170.5,222.2l92.3-53.6c0.3-0.1,0.6-0.3,0.8-0.5l0,0l0,0c1.5-1.2,2.5-3.5,2.5-6.6c0-3-0.9-6.2-2.3-9.1
				l-105.3,60.8L170.5,222.2z"/>
			<path class="st0" d="M164.6,222l-78.5-45.3c-4.7-2.7-8.5-10-8.5-16.3l0,0c0-6.3,3.8-9.2,8.5-6.4l78.5,45.3
				c4.7,2.7,8.5,10,8.5,16.3l0,0C173.2,221.8,169.4,224.7,164.6,222z"/>
		</g>
		<path class="st4" d="M152.9,206.7l-9.4-5.4c-0.9-0.5-1.7-2-1.7-3.3l0,0c0-1.3,0.8-1.8,1.7-1.3l9.4,5.4c0.9,0.5,1.7,2,1.7,3.3l0,0
			C154.6,206.7,153.8,207.2,152.9,206.7z"/>
	</g>
	<g>
		<g>
			<polygon class="st5" points="82,47.1 98.2,56.3 114.6,46.6 114.6,42.4 114.4,42.5 114.4,42.2 121.7,42.1 121.7,38 128.9,38 
				128.8,33.8 136,33.8 136,29.6 143.1,29.6 143.1,25.4 150.8,25.4 153.1,24 155.8,13.2 155.7,8.9 154.5,13 142.9,11.4 			"/>
			<g>
				<g>
					<g>
						<g>
							<g>
								<polygon class="st2" points="98.1,52.1 114.6,42.4 114.4,38 121.7,37.9 121.5,33.8 128.8,33.8 128.6,29.6 136,29.6 
									135.8,25.4 143.1,25.4 142.9,21.3 150.7,21.2 153.1,19.8 155.7,8.9 142.8,7.2 82,42.9 								"/>
							</g>
						</g>
						<g>
							<g>
								<path class="st5" d="M109.1,45.6c-1.7-2.3-4.1-4.6-7.5-6.4c-2.4-1.3-5-2.4-7.7-3.3l-11.9,7l16.1,9.2L109.1,45.6z"/>
							</g>
						</g>
						<g>
							<g>
								<polygon class="st0" points="155.3,10.8 155.7,8.9 153.6,8.7 102.2,38.8 104.9,40.3 								"/>
							</g>
						</g>
						<g>
							<g>
								<polygon class="st6" points="43,60.4 42.9,54.4 44.8,58.4 								"/>
							</g>
						</g>
						<path class="st5" d="M53,73.8c13.2,7.5,34.5,7.3,47.5-0.3c6.5-3.8,9.8-8.9,9.7-13.8l0,0l-0.2-6.3l-1.1,1.2
							c-1.5-3.1-4.4-6.1-8.7-8.5c-13.2-7.5-34.5-7.3-47.5,0.3C39.7,54,39.8,66.3,53,73.8z M72,62.6c3.4,1.9,3.5,5.1,0,7.1
							c-3.4,2-8.9,2-12.4,0.1s-3.5-5.1,0-7.1C63,60.7,68.6,60.7,72,62.6z"/>
						<g>
							<g>
								<path class="st7" d="M52.8,67.8c13.2,7.5,34.5,7.3,47.5-0.3c13.1-7.7,13-19.9-0.2-27.4s-34.5-7.3-47.5,0.3
									C39.5,48.1,39.6,60.3,52.8,67.8z M71.8,56.6c3.4,1.9,3.5,5.1,0,7.1c-3.4,2-8.9,2-12.4,0.1s-3.5-5.1,0-7.1
									C62.9,54.7,68.4,54.7,71.8,56.6z"/>
							</g>
						</g>
						<path class="st0" d="M68.1,71.1c-2.9,0.4-6.1,0.1-8.4-1.2c-2.5-1.4-3.2-3.4-2.1-5.2l-6-4.7c0,0-3.1-3.5-6.2-7
							c-4.8,7-2.3,15.3,7.6,20.9c4.4,2.5,9.2,3.9,14.7,4.7L68.1,71.1z"/>
						<g>
							<g>
								<path class="st2" d="M52.8,67.8c3,1.7,6.3,3,9.9,3.9c2.5,0.6,5.2,1.1,7.9,1.4c10.5,1,21.7-0.9,29.7-5.6
									c13.1-7.7,13-19.9-0.2-27.4s-34.5-7.3-47.5,0.3C39.5,48.1,39.6,60.3,52.8,67.8z M71.8,56.6c3.4,1.9,3.5,5.1,0,7.1
									c-3.4,2-8.9,2-12.4,0.1s-3.5-5.1,0-7.1C62.9,54.7,68.4,54.7,71.8,56.6z"/>
							</g>
						</g>
						<g>
							<g>
								<g>
									<path class="st5" d="M46.6,54.2c0.6-3.8,3.5-7.6,8.5-10.5c11.6-6.8,30.6-6.9,42.3-0.3c5.8,3.3,8.8,7.7,8.8,12.1
										c0.8-5-2.1-10.1-8.7-13.9c-11.7-6.7-30.6-6.5-42.3,0.3C49.4,45.3,46.5,49.8,46.6,54.2z"/>
								</g>
							</g>
						</g>
					</g>
					<g>
						<g>
							<g>
								<g>
									<path class="st5" d="M38.6,108.5c-2.4,0-4.6-0.6-6.6-1.7c-4.7-2.7-7.4-8.1-7.4-15.2c-0.1-12.9,8.9-28.8,20.1-35.4
										c6.1-3.6,12.1-4.1,16.8-1.4c2,1.1,3.7,2.8,4.9,4.9C68,62.5,68.9,66,68.9,70C69,82.9,60,98.8,48.8,105.4
										C45.3,107.5,41.9,108.5,38.6,108.5z M55,57.9c-2.4,0-5,0.8-7.8,2.4c-9.9,5.8-17.8,19.8-17.7,31.2c0,5.3,1.8,9.3,5,11.1
										s7.5,1.3,12.1-1.4c9.9-5.8,17.8-19.8,17.7-31.2c0-3.1-0.7-5.9-1.9-7.9l0,0c-0.8-1.4-1.9-2.4-3.1-3.2
										C58,58.3,56.5,57.9,55,57.9z"/>
								</g>
							</g>
						</g>
					</g>
				</g>
			</g>
		</g>
		<path class="st2" d="M61.2,68.5l9.4,2.3l1.4-7c-3.4,2-8.9,2-12.4,0.1L61.2,68.5z"/>
		<path class="st2" d="M52.8,67.8c3,1.7,6.3,3,9.9,3.9c2.5,0.6,5.2,1.1,7.9,1.4c10.5,1,21.7-0.9,29.7-5.6l-38.2-0.9L52.8,67.8z"/>
		<path class="st5" d="M66.9,72.6c0,0-4.1-0.7-8.3-2.1v5.9c2,0.7,5.4,1.7,8.2,2.1C75.6,79.6,66.9,72.6,66.9,72.6z"/>
	</g>
	<path class="st0" d="M60.8,71.2c-1.8-0.5-3.6-1.2-5.4-2c-5.1-2.4,1.4,6.5,1.4,6.5s1.7,0.7,4,1.4V71.2z"/>
</g>
<polygon class="st0" points="156.7,174.2 140,185 131.8,183.6 151.7,174 "/>
<g>
	<g>
		<path class="st3" d="M136.5,228.6c0,0-4.8-2.4-7.8,1.2s-7.2,12.1-7.3,17.9c-0.1,5.8,4.6,5.4,7.4,4s10.9-13.2,11.4-15.5
			s-0.6-5.5-1.4-6.1C138,229.5,136.5,228.6,136.5,228.6z"/>
		<path class="st0" d="M137.5,227.5l0.2,5c0,1.1-0.5,2.1-1.4,2.6c-0.8,0.5-2.1,0.8-3.7,0.6c-3.6-0.6-4-1.6-4.2-6.6
			C128.1,224,137.5,227.5,137.5,227.5z"/>
		<g>
			<path class="st3" d="M118.8,219c0,0-4.8-2.4-7.8,1.2s-7.2,12.1-7.3,17.9c-0.1,5.8,4.6,5.4,7.4,4s10.9-13.2,11.4-15.5
				s-0.6-5.5-1.4-6.1C120.4,220,118.8,219,118.8,219z"/>
			<path class="st0" d="M119.9,217.9l0.2,5c0,1.1-0.5,2.1-1.4,2.6c-0.8,0.5-2.1,0.8-3.7,0.6c-3.6-0.6-4-1.6-4.2-6.6
				C110.5,214.4,119.9,217.9,119.9,217.9z"/>
			<path class="st2" d="M162.9,126.3c-1.4-23.2-25.1,3.4-25.1,3.4l-16.2,15.9l-14.6,16c-2.9,3.1-4.2,7.4-3.6,11.6l5.9,45
				c0.3,2.2,2.2,3.9,4.4,3.8c0.6,0,1.4-0.1,2.2-0.2c5.3-0.8,4.9-5.8,4.9-5.8l-1.1-42.1l30.7-18.5
				C150.3,155.4,164.3,149.5,162.9,126.3z"/>
		</g>
		<path class="st0" d="M131.3,166l-4.4-1.6c-0.1,0-7.4,7.1-7.4,9.6l3.3,1.1l8.2-8L131.3,166z"/>
		<path class="st0" d="M156.7,174.2c0,0,18.2-10.4,20.4-14.8c0.9-1.7,2.2-3.5-3.1-6.1l-24.3,17.3l1,6L156.7,174.2z"/>
		<path class="st2" d="M180.5,135.2c-1.5-23.2-25.1,3.4-25.1,3.4l-16.2,15.9l-14.6,16c-2.9,3.1-4.2,7.4-3.6,11.6l5.9,45
			c0.3,2.2,2.2,3.9,4.4,3.8c0.6,0,1.4-0.1,2.2-0.2c5.3-0.8,4.9-5.8,4.9-5.8l-1.1-42l30.7-18.5C167.9,164.4,181.9,156.4,180.5,135.2z
			"/>
		<path class="st0" d="M166.5,60.7c18,7.4,17.6,18.1,17.6,18.1s-3.5,38.9-2.3,64.9c0.5,10.9-57.7,11.7-49-17.3
			c10.2-34.2,6.4-61.8,11.2-66C148.7,56.2,161.8,58.8,166.5,60.7z"/>
		<path class="st8" d="M172.2,70.1c-0.9,3.6-5.7,5.6-10.7,4.3s-8.2-5.3-7.3-8.9c0.9-3.6,5.7-5.6,10.7-4.3
			C169.9,62.5,173.2,66.5,172.2,70.1z"/>
		<path class="st4" d="M164.6,75.6c-1,0-2.1-0.1-3.3-0.4c-2.6-0.7-4.8-2-6.3-3.9s-2.1-4.1-1.6-6.1c1-4.1,6.3-6.3,11.7-4.9
			c2.6,0.7,4.8,2,6.3,3.9s2.1,4.1,1.6,6.1C172.2,73.6,168.7,75.6,164.6,75.6z M161.9,61.7c-3.3,0-6.1,1.6-6.8,4
			c-0.4,1.5,0.1,3.1,1.3,4.6c1.3,1.5,3.2,2.7,5.4,3.3c4.5,1.1,8.8-0.5,9.6-3.7c0.4-1.5-0.1-3.1-1.3-4.6c-1.3-1.5-3.2-2.7-5.4-3.3
			C163.8,61.8,162.8,61.7,161.9,61.7z"/>
		<path class="st8" d="M159.3,59.9c0,0,0.2,0.7-0.2,6.4c-0.1,1.8,6.2,3.5,7.8,1.8c1.6-1.6,1-3.3,1.4-9.4
			C168.6,52.7,159.3,59.9,159.3,59.9z"/>
		<path class="st9" d="M168.3,58.7c0,0-1.5,5.6-9.1,7.8l0.1-5.1L168.3,58.7z"/>
		<path class="st8" d="M173.1,44.4c1.9,7.4-2.5,14.9-9.9,16.8s-14.9-2.5-16.8-9.9s2.5-14.9,9.9-16.8C163.6,32.6,171.2,37,173.1,44.4
			z"/>
		<path class="st9" d="M162.9,48.4c0,0-7.6,3.3-12.9,3.3s-4.1-4.4-4.1-4.4l15.6-2.3L162.9,48.4z"/>
		<path class="st10" d="M148.4,49.2c0,0,6.6-2.8,12.4-1.6c1.4,0.3,2.6,1,3.5,2.1c0.3,0.3,0.6,0.7,1.1,0.8c1,0.2,2.7-4.1,4.7-4.1
			c2-0.1,3.3,1.3,1.7,3.9c-1.6,2.6-1.1,5.6-0.3,6s8.8-5.7,1.7-19.7s-25-6.5-27.8-3.6c0,0-3,2.6-5.3,0.3
			C140,33.2,137.4,53.3,148.4,49.2z"/>
		<path class="st8" d="M174,107.2v10.5c0,1.2-0.5,2.4-1.4,3.2L151,140.5l2.5,3.8l28.5-20.7c1.3-1,2.2-2.4,2.4-4.1l1.9-18.3
			L174,107.2z"/>
		<path class="st0" d="M182.5,73.5c0,0,6.5,9.9,9,35.8c0,0-11.2,3.6-17.5,1.6C167.6,108.8,182.5,73.5,182.5,73.5z"/>
		<path class="st5" d="M172.8,86c0,0-2.6,13.7-2.7,20.2c0,1.8,1,3.4,2.7,4l0,0V86z"/>
	</g>
	<g>
		<path class="st3" d="M167.2,154.2l-4.8-0.6l-30.8-17.8c-1-0.6-2.7-0.5-3.9,0.2l-21.8,12.6l-2.9-0.4v2.9l0,0c0,0.4,0.2,0.7,0.7,1
			l34.9,20.2c1,0.6,2.7,0.5,3.9-0.2l23.8-13.7c0.6-0.4,1-0.9,0.9-1.3l0,0L167.2,154.2L167.2,154.2z"/>
		<path class="st5" d="M144,143l-2.2-1.3h-24.1l-11.9,6.9l-2.9-0.4v2.9l0,0c0,0.4,0.2,0.7,0.7,1l34.9,20.2c0.5,0.3,1.3,0.4,2,0.4
			L144,143z"/>
		<path class="st0" d="M104.3,148.4l-1.3-0.2v2.9l0,0c0,0.4,0.2,0.7,0.7,1l0.6,0.4L104.3,148.4L104.3,148.4z"/>
		<path class="st11" d="M139,172.4c0.9,0.4,2.3,0.3,3.3-0.2v-4.9H139V172.4z"/>
		<path class="st4" d="M138.6,169.4l-34.9-20.2c-1-0.6-0.9-1.6,0.3-2.2l23.8-13.7c1.1-0.7,2.9-0.7,3.9-0.2l34.9,20.2
			c1,0.6,0.9,1.6-0.3,2.2l-23.8,13.7C141.3,169.9,139.6,169.9,138.6,169.4z"/>
		<path class="st2" d="M138,166.3l-29-16.8c-0.8-0.5-0.7-1.3,0.2-1.9l12.7-7.2c1-0.6,2.4-0.6,3.2-0.1l29,16.8
			c0.8,0.5,0.7,1.3-0.2,1.9l-12.7,7.2C140.3,166.7,138.8,166.8,138,166.3z"/>
	</g>
	<path class="st8" d="M129.1,132.6l-0.4,2.4c-0.3,2.1-0.3,4.1,0.2,6.2l0.4,2.1c0.2,1.2,1.2,2.1,2.4,2.4l0,0c0.9,0.2,1.8-0.5,1.9-1.4
		l0.6-5.1c0,0,1.3,1.7,2,1.7c0.6,0-0.7-5.2-2.1-8.1S129.1,132.6,129.1,132.6z"/>
	<path class="st8" d="M140.9,94.3l-3.8,7.4c-0.9,1.8-1.4,3.7-1.5,5.6l-1.6,25.4l-4.9-0.1l-2.2-28.5c-0.1-0.9,0-1.8,0.1-2.6l2.6-14.4
		L140.9,94.3z"/>
	<g>
		<path class="st3" d="M137.4,171.3l-2.9-3.8l-30.8-17.8c-1-0.6-1.8-2.1-1.8-3.4v-25.2l-1.8-2.3l1.7-1l0,0c0.3-0.2,0.7-0.2,1.2,0.1
			l34.9,20.2c1,0.6,1.8,2.1,1.8,3.4V169c0,0.7-0.3,1.3-0.6,1.5l0,0L137.4,171.3z"/>
		<path class="st5" d="M116.1,156.9l-2.2-1.3l-12-20.9V121l-1.8-2.3l1.7-1l0,0c0.3-0.2,0.7-0.2,1.2,0.1l34.9,20.2
			c0.5,0.3,1,0.9,1.3,1.5L116.1,156.9z"/>
		<path class="st0" d="M101,119.7l-0.8-1l1.7-1l0,0c0.3-0.2,0.7-0.2,1.2,0.1l0.6,0.4L101,119.7z"/>
		<path class="st11" d="M138.3,138.2c0.8,0.6,1.4,1.8,1.5,2.9l-3.4,2l-1.6-2.8L138.3,138.2z"/>
		<path class="st0" d="M136.3,139l-34.9-20.2c-1-0.6-1.8,0-1.8,1.4v27.5c0,1.3,0.8,2.9,1.8,3.4l34.9,20.2c1,0.6,1.8,0,1.8-1.4v-27.5
			C138.1,141.1,137.3,139.6,136.3,139z"/>
	</g>
	<path class="st8" d="M153.4,144.3l-0.6,1.2c-0.6,1.3-1.7,2.5-2.9,3.2l-3.5,2.1c-1.1,0.7-2.4,0.7-3.5,0.1l-0.1-0.1
		c-1.1-0.7-1.2-2.3-0.3-3.2l3.6-3.7c0,0-2,1.6-2.6,0.9c-0.4-0.5,2-2.7,3.8-2.8s3.6-1.5,3.6-1.5L153.4,144.3z"/>
	<path class="st0" d="M144.3,60.3c0,0-13.3,14.4-18.6,27.7c0,0,4.5,8.2,15.7,11.4C152.4,102.6,144.3,60.3,144.3,60.3z"/>
	<path class="st5" d="M138.8,98.5l2.1-20.8l-5.1,19.5C136.8,97.7,137.7,98.1,138.8,98.5z"/>
	<path class="st4" d="M154.2,57.4l-3.6-1c0,0,1.7,2.7,4.2,3.4s2.9-1.4,2.9-1.4L154.2,57.4z"/>
</g>
<path class="st2" d="M86.5,25.4c-5.5,0-10-4.5-10-10s4.5-10,10-10s10,4.5,10,10S92,25.4,86.5,25.4z M86.5,7.6
	c-4.3,0-7.8,3.5-7.8,7.8s3.5,7.8,7.8,7.8s7.8-3.5,7.8-7.8S90.8,7.6,86.5,7.6z"/>
<path class="st0" d="M288.5,97.5c-3.9,0-7.1-3.2-7.1-7.1s3.2-7.1,7.1-7.1s7.1,3.2,7.1,7.1S292.5,97.5,288.5,97.5z M288.5,85.5
	c-2.7,0-4.9,2.2-4.9,4.9s2.2,4.9,4.9,4.9s4.9-2.2,4.9-4.9C293.5,87.7,291.3,85.5,288.5,85.5z"/>
<path class="st0" d="M56.1,225.5l-4.8-9.8l9.8-4.8l4.8,9.8L56.1,225.5z M54.3,216.7l2.9,5.9l5.9-2.9l-2.9-5.9L54.3,216.7z"/>
<path class="st0" d="M198.2,73.9l-4.8-9.8l9.8-4.8l4.8,9.8L198.2,73.9z M196.3,65.1l2.9,5.9l5.9-2.9l-2.9-5.9L196.3,65.1z"/>
<rect x="39.3" y="166.7" transform="matrix(0.8974 -0.4412 0.4412 0.8974 -70.3656 35.7957)" class="st0" width="5" height="5"/>
<g>
	<g>
		<path class="st12" d="M219.3,20.8L192.6,5.4c-0.5-0.3-1-0.3-1.4-0.1l0,0l-2.6,1.5c0,0,1.1,0.4,1.8,0.7V27c0,1.6,1,3.4,2.1,4.1
			l25.6,14.8v2.3l2.6-1.5l0,0c0.4-0.3,0.7-0.9,0.7-1.7V25.1C221.5,23.3,220.5,21.4,219.3,20.8z"/>
		<path class="st10" d="M216.7,47.9L190,32.5c-1.2-0.7-2.1-2.5-2.1-4.1V8.5c0-1.6,1-2.3,2.1-1.6l26.7,15.4c1.2,0.7,2.1,2.5,2.1,4.1
			v19.9C218.8,47.8,217.9,48.6,216.7,47.9z"/>
	</g>
	<g>
		<path class="st4" d="M198.9,25.6c0,1.2-0.8,1.6-1.8,1s-1.8-2-1.8-3.1s0.8-1.6,1.8-1S198.9,24.5,198.9,25.6z"/>
		<path class="st4" d="M204.4,28.8c0,1.2-0.8,1.6-1.8,1s-1.8-2-1.8-3.1s0.8-1.6,1.8-1C203.6,26.2,204.4,27.6,204.4,28.8z"/>
		<path class="st4" d="M209.9,31.9c0,1.2-0.8,1.6-1.8,1s-1.8-2-1.8-3.1s0.8-1.6,1.8-1C209,29.4,209.9,30.8,209.9,31.9z"/>
	</g>
</g>
<g>
	<g>
		<path class="st0" d="M34.5,189.9L8.3,174.8c-0.5-0.3-1-0.3-1.4-0.1l0,0l-2.5,1.5c0,0,1.1,0.4,1.8,0.6v19.1c0,1.5,0.9,3.4,2.1,4
			l25.1,14.5v2.2l2.6-1.5l0,0c0.4-0.3,0.7-0.9,0.7-1.7v-19.5C36.6,192.4,35.6,190.6,34.5,189.9z"/>
		<path class="st2" d="M31.9,216.5L5.7,201.4c-1.2-0.7-2.1-2.5-2.1-4v-19.5c0-1.6,0.9-2.3,2.1-1.6l26.2,15.1c1.2,0.7,2.1,2.5,2.1,4
			v19.5C34,216.5,33,217.2,31.9,216.5z"/>
	</g>
	<g>
		<path class="st4" d="M14.5,194.7c0,1.1-0.8,1.6-1.8,1s-1.8-1.9-1.8-3.1s0.8-1.6,1.8-1S14.5,193.5,14.5,194.7z"/>
		<path class="st4" d="M19.8,197.8c0,1.1-0.8,1.6-1.8,1s-1.8-1.9-1.8-3.1s0.8-1.6,1.8-1S19.8,196.6,19.8,197.8z"/>
		<path class="st4" d="M25.2,200.9c0,1.1-0.8,1.6-1.8,1s-1.8-1.9-1.8-3.1s0.8-1.6,1.8-1C24.4,198.4,25.2,199.7,25.2,200.9z"/>
	</g>
</g>
</svg>
